Open on gorgeous swamplands of the Atchafalaya Basin in the summer. Lots of beautiful teens are at the beach the weekend before Gator Fest... 
 
http://www.imdb.com/title/tt1684927/

Subs: Dutch.

De film speelt zich af in de mooie moerassen van Atchafalaya Basin tijdens de zomer. Veel mooie tieners liggen in het weekend aan het strand voor het 'Gator Fest' begint. Die nacht loopt een dierensmokkel gruwelijk uit de hand en ontsnapt er een groot zeedier de afgelegen riviertjes in. Bij het restaurant van McDaniel wordt de lokale dronkenlap Jackson doodgebeten teruggevonden. De sheriff beschuldigt de ontsnapte alligators van McDaniel ervan en probeert hem in de gevangenis te krijgen. Rachel McDaniel, het hoofd van de familie, beweert echter dat zij de vin van een haai boven het water heeft zien uitkomen. Samen met de hulp van haar familie en de mysterieuze vreemdeling Charlie besluit ze het wezen een bezoekje te brengen om de naam van haar familie te zuiveren en het 'Gator Fest' toch te kunnen laten doorgaan...
 
http://www.moviemeter.nl/film/68636

Subs: Nederlands.

General
Complete name                    : Swamp Shark-AC3-XviD-DVDRip 2011.avi
Format                           : AVI
Format/Info                      : Audio Video Interleave
File size                        : 1.46 GiB
Duration                         : 1h 25mn
Overall bit rate                 : 2 451 Kbps
Writing application              : VirtualDubMod 1.5.4.1 (build 2178/release)
Writing library                  : VirtualDubMod build 2178/release
Source                           : Pal Retail 2011

Video
ID                               : 0
Format                           : MPEG-4 Visual
Format profile                   : Simple@L3
Format settings, BVOP            : No
Format settings, QPel            : No
Format settings, GMC             : No warppoints
Format settings, Matrix          : Default (H.263)
Codec ID                         : XVID
Codec ID/Hint                    : XviD
Duration                         : 1h 25mn
Bit rate                         : 1 993 Kbps
Width                            : 720 pixels
Height                           : 400 pixels
Display aspect ratio             : 16:9
Frame rate                       : 25.000 fps
Resolution                       : 8 bits
Colorimetry                      : 4:2:0
Scan type                        : Progressive
Bits/(Pixel*Frame)               : 0.277
Stream size                      : 1.19 GiB (81%)
Writing library                  : XviD 1.1.2 (UTC 2006-11-01)

Audio
ID                               : 1
Format                           : AC-3
Format/Info                      : Audio Coding 3
Codec ID                         : 2000
Duration                         : 1h 25mn
Bit rate mode                    : Constant
Bit rate                         : 448 Kbps
Channel(s)                       : 6 channels
Channel positions                : Front: L C R, Surround: L R, LFE
Sampling rate                    : 48.0 KHz
Stream size                      : 273 MiB (18%)
Alignment                        : Split accross interleaves
Interleave, duration             : 40 ms (1.00 video frame)
Interleave, preload duration     : 500 ms

Thanks to Drental.

Enjoy...

TBS.